<svg xmlns="http://www.w3.org/2000/svg" viewBox="0 0 638.31 93.75"><g id="Layer_2" data-name="Layer 2"><g id="Camada_1" data-name="Camada 1"><path d="M36.19,81.56l.28-1A35.31,35.31,0,0,0,65,76.49,34.91,34.91,0,0,0,80.86,52.35l1,.15A35.88,35.88,0,0,1,65.57,77.33,36.34,36.34,0,0,1,36.19,81.56Z" style="fill:#00538d"/><path d="M81.58,50.94a1.52,1.52,0,0,1-.46,3A1.49,1.49,0,0,1,80,52.22,1.47,1.47,0,0,1,81.58,50.94Z" style="fill:#00538d"/><path d="M37.79,81.45a1.42,1.42,0,0,1-1.83.9,1.36,1.36,0,0,1-1.06-1.72,1.49,1.49,0,0,1,1.8-.83A1.42,1.42,0,0,1,37.79,81.45Z" style="fill:#00538d"/><path d="M30,78.55A1.39,1.39,0,0,1,28,79a1.34,1.34,0,1,1,1.31-2.31A1.46,1.46,0,0,1,30,78.55Z" style="fill:#00538d"/><path d="M12.17,57.4a1.51,1.51,0,0,1-.75-2.91,1.51,1.51,0,0,1,.75,2.91Z" style="fill:#00538d"/><path d="M11.31,56.07l1-.25A35.47,35.47,0,0,0,28.89,77.41l-.49.87A36.05,36.05,0,0,1,11.31,56.07Z" style="fill:#00538d"/><path d="M10.57,41.25A35.92,35.92,0,0,1,26.84,16.42a36.35,36.35,0,0,1,29.38-4.23l-.28,1a35.31,35.31,0,0,0-28.57,4.11A34.92,34.92,0,0,0,11.55,41.4Z" style="fill:#00538d"/><path d="M10.83,42.81a1.52,1.52,0,0,1,.46-3,1.52,1.52,0,0,1-.46,3Z" style="fill:#00538d"/><path d="M54.62,12.29a1.44,1.44,0,0,1,1.83-.9,1.39,1.39,0,0,1,1.07,1.73,1.5,1.5,0,0,1-1.81.83A1.43,1.43,0,0,1,54.62,12.29Z" style="fill:#00538d"/><path d="M62.44,15.19a1.38,1.38,0,0,1,2-.44,1.34,1.34,0,1,1-1.31,2.31A1.48,1.48,0,0,1,62.44,15.19Z" style="fill:#00538d"/><path d="M80.24,36.35A1.51,1.51,0,0,1,81,39.26a1.51,1.51,0,0,1-.75-2.91Z" style="fill:#00538d"/><path d="M63.52,16.34l.49-.87A36,36,0,0,1,81.1,37.68l-1,.25A35.52,35.52,0,0,0,63.52,16.34Z" style="fill:#00538d"/><path d="M53.21,2.65l.21-1.32a46.35,46.35,0,0,1,18.15,7A45.68,45.68,0,0,1,85.21,22.16,46.32,46.32,0,0,1,92,40.4a47,47,0,0,1-1.32,19.4l-1.29-.37a45.53,45.53,0,0,0,1.28-18.84,44.9,44.9,0,0,0-6.54-17.71A44.37,44.37,0,0,0,70.84,9.43,45.15,45.15,0,0,0,53.21,2.65Z" style="fill:#00538d"/><path d="M51.41,1.7A1.81,1.81,0,0,1,53.59.22a1.8,1.8,0,0,1,1.63,2.06A1.92,1.92,0,0,1,53,3.75,1.9,1.9,0,0,1,51.41,1.7Z" style="fill:#00538d"/><path d="M90.47,57.74a1.87,1.87,0,0,1,1.23,2.37,1.8,1.8,0,0,1-2.29,1.34,1.92,1.92,0,0,1-1.14-2.33A1.86,1.86,0,0,1,90.47,57.74Z" style="fill:#00538d"/><path d="M86.75,67.75a1.81,1.81,0,0,1,.65,2.58,1.79,1.79,0,1,1-3.11-1.76A1.92,1.92,0,0,1,86.75,67.75Z" style="fill:#00538d"/><path d="M59.68,90.54a1.79,1.79,0,0,1-1.41,2.21A1.82,1.82,0,0,1,56,91.5a1.92,1.92,0,0,1,1.41-2.21A1.94,1.94,0,0,1,59.68,90.54Z" style="fill:#00538d"/><path d="M57.65,90.37A45.38,45.38,0,0,0,85.26,69.12l1.17.66A46.13,46.13,0,0,1,58,91.67Z" style="fill:#00538d"/><path d="M0,47A46.85,46.85,0,0,1,1.78,34.15l1.29.37A45.69,45.69,0,0,0,1.79,53.36a45,45,0,0,0,6.54,17.7A44.55,44.55,0,0,0,21.58,84.52,45,45,0,0,0,39.2,91.29L39,92.62a46.4,46.4,0,0,1-18.15-7A45.71,45.71,0,0,1,7.2,71.78,46,46,0,0,1,0,47Z" style="fill:#00538d"/><path d="M41,92.25a1.93,1.93,0,0,1-3.81-.58,1.94,1.94,0,0,1,2.19-1.48A1.91,1.91,0,0,1,41,92.25Z" style="fill:#00538d"/><path d="M2,36.2A1.86,1.86,0,0,1,.71,33.84,1.8,1.8,0,0,1,3,32.5a1.91,1.91,0,0,1,1.14,2.33A1.85,1.85,0,0,1,2,36.2Z" style="fill:#00538d"/><path d="M5.66,26.19A1.81,1.81,0,0,1,5,23.61a1.87,1.87,0,0,1,2.56-.76,1.86,1.86,0,0,1,.55,2.53A1.91,1.91,0,0,1,5.66,26.19Z" style="fill:#00538d"/><path d="M32.73,3.41A1.79,1.79,0,0,1,34.14,1.2a1.81,1.81,0,0,1,2.32,1.25,1.92,1.92,0,0,1-1.41,2.21A2,2,0,0,1,32.73,3.41Z" style="fill:#00538d"/><path d="M6,24.16A46.12,46.12,0,0,1,34.43,2.28l.34,1.3A45.38,45.38,0,0,0,7.15,24.82Z" style="fill:#00538d"/><path d="M41.11,65l.14-.49A18,18,0,0,0,55.8,62.43a17.77,17.77,0,0,0,8.06-12.29l.5.07a18.3,18.3,0,0,1-8.29,12.65A18.51,18.51,0,0,1,41.11,65Z" style="fill:#00538d"/><path d="M64.22,49.42A.77.77,0,0,1,64,50.93a.75.75,0,0,1-.55-.86A.74.74,0,0,1,64.22,49.42Z" style="fill:#00538d"/><path d="M41.92,65a.73.73,0,0,1-.93.46.72.72,0,0,1-.55-.88.76.76,0,0,1,.92-.42A.73.73,0,0,1,41.92,65Z" style="fill:#00538d"/><path d="M37.94,63.48a.71.71,0,0,1-1,.23.68.68,0,1,1,.66-1.18A.76.76,0,0,1,37.94,63.48Z" style="fill:#00538d"/><path d="M28.87,52.71a.7.7,0,0,1-.85-.57.71.71,0,0,1,.47-.92.75.75,0,0,1,.84.57A.77.77,0,0,1,28.87,52.71Z" style="fill:#00538d"/><path d="M28.43,52l.49-.13a18.1,18.1,0,0,0,8.47,11l-.25.44A18.31,18.31,0,0,1,28.43,52Z" style="fill:#00538d"/><path d="M28.05,44.48a18.38,18.38,0,0,1,23.26-14.8l-.14.49A17.87,17.87,0,0,0,28.55,44.55Z" style="fill:#00538d"/><path d="M28.19,45.27a.7.7,0,0,1-.55-.86.68.68,0,0,1,.78-.65.75.75,0,0,1,.55.86A.74.74,0,0,1,28.19,45.27Z" style="fill:#00538d"/><path d="M50.49,29.73a.73.73,0,0,1,.93-.46.7.7,0,0,1,.55.88.75.75,0,0,1-.92.42A.73.73,0,0,1,50.49,29.73Z" style="fill:#00538d"/><path d="M54.48,31.21a.7.7,0,0,1,1-.23.68.68,0,1,1-1,.23Z" style="fill:#00538d"/><path d="M63.54,42a.7.7,0,0,1,.85.57.72.72,0,0,1-.46.92A.78.78,0,0,1,63.54,42Z" style="fill:#00538d"/><path d="M55,31.79l.25-.44A18.33,18.33,0,0,1,64,42.66l-.49.13A18.09,18.09,0,0,0,55,31.79Z" style="fill:#00538d"/><path d="M40.4,56.56l.41-.65A10.13,10.13,0,1,0,49.33,37.7l.23-.72a10.88,10.88,0,0,1,6.51,15,10.88,10.88,0,0,1-15.67,4.6Z" style="fill:#00538d"/><path d="M48.59,37.11a.9.9,0,1,1,1.69.54.89.89,0,1,1-1.69-.54Z" style="fill:#00538d"/><path d="M41.38,56.68a.9.9,0,1,1-1.5-1,.89.89,0,1,1,1.5,1Z" style="fill:#00538d"/><path d="M37.68,53.48a.92.92,0,0,1-1.36-.22.91.91,0,0,1,.45-1.3,1,1,0,0,1,1.29.26A1,1,0,0,1,37.68,53.48Z" style="fill:#00538d"/><path d="M40.27,38.67a.9.9,0,1,1,1.55-.87,1,1,0,0,1-.29,1.28A1,1,0,0,1,40.27,38.67Z" style="fill:#00538d"/><path d="M35.32,47.35a11.07,11.07,0,0,1,.36-2.79,10.85,10.85,0,0,1,5.16-6.69l.37.66a10.15,10.15,0,0,0-3.7,14l-.65.4A10.82,10.82,0,0,1,35.32,47.35Z" style="fill:#00538d"/><path d="M50.18,22.2l.12-.75a26.11,26.11,0,0,1,10.29,4,25.81,25.81,0,0,1,7.74,7.86,26.27,26.27,0,0,1,3.83,10.35,26.68,26.68,0,0,1-.75,11l-.73-.21a25.87,25.87,0,0,0,.72-10.69A25.51,25.51,0,0,0,60.18,26,25.73,25.73,0,0,0,50.18,22.2Z" style="fill:#00538d"/><path d="M49.16,21.66a1.1,1.1,0,0,1,2.16.33,1.11,1.11,0,0,1-1.24.84A1.09,1.09,0,0,1,49.16,21.66Z" style="fill:#00538d"/><path d="M71.31,53.46A1,1,0,0,1,72,54.8a1,1,0,0,1-1.3.76,1.1,1.1,0,0,1-.65-1.33A1,1,0,0,1,71.31,53.46Z" style="fill:#00538d"/><path d="M69.21,59.13a1,1,0,0,1,.36,1.47,1,1,0,1,1-1.76-1A1.1,1.1,0,0,1,69.21,59.13Z" style="fill:#00538d"/><path d="M53.85,72.06a1,1,0,0,1-.8,1.25,1,1,0,0,1-1.32-.71,1.1,1.1,0,0,1,2.12-.54Z" style="fill:#00538d"/><path d="M52.7,72a25.73,25.73,0,0,0,15.66-12l.66.37A26.1,26.1,0,0,1,52.89,72.7Z" style="fill:#00538d"/><path d="M20,47.35a26.6,26.6,0,0,1,1-7.28l.74.21A25.7,25.7,0,0,0,21,51a25.44,25.44,0,0,0,3.71,10,25.09,25.09,0,0,0,7.51,7.63,25.6,25.6,0,0,0,10,3.85l-.11.75a26.37,26.37,0,0,1-10.3-4,25.81,25.81,0,0,1-7.74-7.86,26.26,26.26,0,0,1-3.82-10.35A25.76,25.76,0,0,1,20,47.35Z" style="fill:#00538d"/><path d="M43.25,73a1.1,1.1,0,0,1-2.16-.33,1.11,1.11,0,0,1,1.24-.84A1.09,1.09,0,0,1,43.25,73Z" style="fill:#00538d"/><path d="M21.1,41.23a1,1,0,0,1-.7-1.34,1,1,0,0,1,1.29-.76,1.09,1.09,0,0,1,.65,1.33A1,1,0,0,1,21.1,41.23Z" style="fill:#00538d"/><path d="M23.2,35.56a1,1,0,0,1-.36-1.47,1,1,0,1,1,1.76,1A1.1,1.1,0,0,1,23.2,35.56Z" style="fill:#00538d"/><path d="M38.56,22.63a1,1,0,0,1,.8-1.25,1,1,0,0,1,1.32.71,1.09,1.09,0,0,1-.8,1.25A1.11,1.11,0,0,1,38.56,22.63Z" style="fill:#00538d"/><path d="M23.39,34.41A26.12,26.12,0,0,1,39.53,22l.19.74A25.71,25.71,0,0,0,24.05,34.78Z" style="fill:#00538d"/><path d="M137.22,27.41a22.11,22.11,0,0,1-8.07,1.72c-6.31,0-10.81-3.95-10.81-10.48,0-6.18,4-10.75,10.11-10.75a16.63,16.63,0,0,1,8.44,2.33l.7-7.19A33,33,0,0,0,128,1.33c-10.67,0-18.56,5.76-18.56,17.32,0,12.57,10,17.06,18.6,17.06a34.77,34.77,0,0,0,9.6-1.35l-.41-6.95Zm3.15-8.9c0,10.57,5.66,17.2,16.24,17.2s16.23-6.63,16.23-17.2S167.27,1.33,156.61,1.33s-16.24,6.52-16.24,17.18Zm8.91,0c0-5.76,2.08-10.61,7.33-10.61s7.32,4.85,7.32,10.61c0,5.48-2.08,10.62-7.32,10.62s-7.33-5.14-7.33-10.62ZM177.8,35.13h7.93l-.28-22.71h.1l11.31,22.71h10.72V1.9h-7.89l.14,22.56h-.09l-11-22.56h-11V35.13Zm33.3,0h8.77l2.55-7.1h12.15l2.42,7.1h9.46L234,1.9H223.4L211.1,35.13Zm21.43-13.38h-8.11l4.17-13h.09l3.85,13Zm16.65,12.52a32.94,32.94,0,0,0,9.65,1.44c7.19,0,14.24-2.34,14.24-11,0-12-15.31-8.38-15.31-13.76,0-2.9,3.62-3.09,5.8-3.09a16.92,16.92,0,0,1,7.19,1.52l.56-6.86A26.79,26.79,0,0,0,263,1.33c-6.49,0-14.1,2.19-14.1,10.18,0,12.1,15.31,8.19,15.31,14.38,0,2.67-2.6,3.24-5.34,3.24a18.51,18.51,0,0,1-8.9-2.19l-.75,7.33Zm28.34,0a32.94,32.94,0,0,0,9.65,1.44c7.19,0,14.24-2.34,14.24-11,0-12-15.31-8.38-15.31-13.76,0-2.9,3.62-3.09,5.8-3.09a17,17,0,0,1,7.19,1.52l.56-6.86a26.79,26.79,0,0,0-8.35-1.23c-6.49,0-14.1,2.19-14.1,10.18,0,12.1,15.3,8.19,15.3,14.38,0,2.67-2.59,3.24-5.33,3.24a18.51,18.51,0,0,1-8.9-2.19Z" style="fill:#009879;fill-rule:evenodd"/><path d="M139,77.4q-.62,6.76-4.55,10.39t-10.67,3.62a14.11,14.11,0,0,1-8-2.36,15.42,15.42,0,0,1-5.44-6.7,24.53,24.53,0,0,1-2-9.93V65.65a25,25,0,0,1,1.9-10,15.4,15.4,0,0,1,5.44-6.8,14,14,0,0,1,8.11-2.41q6.69,0,10.64,3.61T139,60.4h-1.59q-.68-6-4.1-9.18t-9.53-3.14a12.21,12.21,0,0,0-10,4.8q-3.82,4.82-3.83,12.89v6.44a23.14,23.14,0,0,0,1.7,9.14,14.06,14.06,0,0,0,4.88,6.21,12.42,12.42,0,0,0,7.29,2.22q6.13,0,9.57-3.09t4.06-9.29Z" style="fill:#00538d"/><path d="M151.59,90.8H150V47.05h1.59Z" style="fill:#00538d"/><path d="M187.48,69.11H166.07V89.18h24.4V90.8h-26V47.05h26v1.63h-24.4V67.49h21.41Z" style="fill:#00538d"/><path d="M228.77,86.12a11.74,11.74,0,0,1-5.66,3.78,25.49,25.49,0,0,1-8.92,1.51A15.45,15.45,0,0,1,205.72,89a15.92,15.92,0,0,1-5.82-6.7,22.71,22.71,0,0,1-2.16-9.79V65a22.35,22.35,0,0,1,2-9.64,15.42,15.42,0,0,1,5.69-6.6,15.08,15.08,0,0,1,8.24-2.33,15.67,15.67,0,0,1,10.37,3.34,13.24,13.24,0,0,1,4.65,9.1h-1.59a12.15,12.15,0,0,0-4.25-8q-3.45-2.79-9.18-2.79a12.94,12.94,0,0,0-10.41,4.71q-4,4.73-4,12.41v7a21.45,21.45,0,0,0,1.87,9.16,14.47,14.47,0,0,0,5.25,6.23,13.79,13.79,0,0,0,7.75,2.21,23.8,23.8,0,0,0,7.95-1.29,10.6,10.6,0,0,0,5-3.13V72.6H214.13V71h14.64Z" style="fill:#00538d"/><path d="M262.9,69.11H241.49V89.18h24.4V90.8h-26V47.05h26v1.63h-24.4V67.49H262.9Z" style="fill:#00538d"/><path d="M299.67,80.32a8.42,8.42,0,0,0-1.28-4.73,10.82,10.82,0,0,0-4-3.43,42.57,42.57,0,0,0-8.29-3A38,38,0,0,1,277.78,66a11.06,11.06,0,0,1-4.06-3.69,9.6,9.6,0,0,1-1.29-5.11,9.26,9.26,0,0,1,3.93-7.74q3.93-3,10.23-3A16.28,16.28,0,0,1,294,48.09a12.14,12.14,0,0,1,5.06,4.6,12.67,12.67,0,0,1,1.78,6.68h-1.58a10.45,10.45,0,0,0-3.52-8.09,13,13,0,0,0-9.12-3.2,14.87,14.87,0,0,0-9.1,2.57A7.92,7.92,0,0,0,277,63.43q3,2.4,10,4.25T297.18,72a9.89,9.89,0,0,1,4.1,8.3,9.72,9.72,0,0,1-1.82,5.84A11.52,11.52,0,0,1,294.3,90a19.5,19.5,0,0,1-7.5,1.39,21,21,0,0,1-8.33-1.58,11.92,11.92,0,0,1-5.56-4.49,12.54,12.54,0,0,1-1.86-6.88h1.58a9.87,9.87,0,0,0,3.93,8.35q3.93,3,10.24,3A15.3,15.3,0,0,0,296,87.15,8.06,8.06,0,0,0,299.67,80.32Z" style="fill:#00538d"/><line x1="323.07" x2="323.07" y2="90.61" style="fill:none;stroke:#00538d;stroke-miterlimit:10;stroke-width:1.5px"/><path d="M353.84,18.76a6.26,6.26,0,0,1-2,4.17,6.55,6.55,0,0,1-4.47,1.47,6,6,0,0,1-4.84-2.17,8.71,8.71,0,0,1-1.82-5.79V14.8a9.76,9.76,0,0,1,.85-4.17A6.3,6.3,0,0,1,344,7.86a6.6,6.6,0,0,1,3.6-1,6.15,6.15,0,0,1,4.35,1.52,6.31,6.31,0,0,1,1.91,4.19h-2.26a4.91,4.91,0,0,0-1.27-3,3.83,3.83,0,0,0-2.73-.91,4,4,0,0,0-3.38,1.59A7.37,7.37,0,0,0,343,14.86v1.65a7.51,7.51,0,0,0,1.16,4.41,3.72,3.72,0,0,0,3.24,1.64,4.28,4.28,0,0,0,2.87-.85,4.68,4.68,0,0,0,1.33-2.95Z" style="fill:#00538d"/><path d="M366.54,16.29h-7.39v6h8.58v1.84H356.91v-17h10.7V9h-8.46v5.49h7.39Z" style="fill:#00538d"/><path d="M383.62,24.17h-2.25L372.79,11V24.17h-2.26v-17h2.26l8.6,13.19V7.13h2.23Z" style="fill:#00538d"/><path d="M399.05,9h-5.48V24.17h-2.23V9h-5.47V7.13h13.18Z" style="fill:#00538d"/><path d="M407.82,17.27h-4v6.9h-2.26v-17h5.64a6.64,6.64,0,0,1,4.43,1.31,4.69,4.69,0,0,1,1.56,3.81,4.58,4.58,0,0,1-.87,2.78,5.16,5.16,0,0,1-2.39,1.76l4,7.23v.15h-2.41Zm-4-1.83h3.46a3.89,3.89,0,0,0,2.66-.87,2.93,2.93,0,0,0,1-2.32A3.08,3.08,0,0,0,410,9.82,4,4,0,0,0,407.26,9h-3.44Z" style="fill:#00538d"/><path d="M429.44,16.2a10.58,10.58,0,0,1-.84,4.37,6.43,6.43,0,0,1-2.39,2.85,6.6,6.6,0,0,1-3.6,1,6.37,6.37,0,0,1-6-3.81,10.06,10.06,0,0,1-.88-4.24V15.12a10.37,10.37,0,0,1,.85-4.34,6.71,6.71,0,0,1,9.6-2.9,6.34,6.34,0,0,1,2.41,2.87,10.61,10.61,0,0,1,.84,4.37Zm-2.23-1.1A7.68,7.68,0,0,0,426,10.44a4,4,0,0,0-3.41-1.62,4,4,0,0,0-3.35,1.62,7.49,7.49,0,0,0-1.26,4.5V16.2a7.6,7.6,0,0,0,1.24,4.61,4.33,4.33,0,0,0,6.77.1,7.72,7.72,0,0,0,1.23-4.55Z" style="fill:#00538d"/><path d="M438.74,24.17v-17h4.81a7.71,7.71,0,0,1,3.94,1,6.65,6.65,0,0,1,2.63,2.8,9.11,9.11,0,0,1,.95,4.16v1.09a9.16,9.16,0,0,1-.93,4.23,6.61,6.61,0,0,1-2.66,2.78,8.26,8.26,0,0,1-4,1ZM441,9V22.33h2.37a5.14,5.14,0,0,0,4-1.62,6.69,6.69,0,0,0,1.44-4.6v-1a6.77,6.77,0,0,0-1.36-4.51A4.86,4.86,0,0,0,443.61,9Z" style="fill:#00538d"/><path d="M464.09,16.29h-7.38v6h8.58v1.84H454.46v-17h10.71V9h-8.46v5.49h7.38Z" style="fill:#00538d"/><path d="M476.43,24.17h-2.25v-17h2.25Z" style="fill:#00538d"/><path d="M493.63,24.17h-2.26L482.79,11V24.17h-2.26v-17h2.26l8.61,13.19V7.13h2.23Z" style="fill:#00538d"/><path d="M509.05,9h-5.47V24.17h-2.24V9h-5.46V7.13h13.17Z" style="fill:#00538d"/><path d="M521.21,16.29h-7.38v6h8.58v1.84H511.58v-17h10.71V9h-8.46v5.49h7.38Z" style="fill:#00538d"/><path d="M527.46,22.33h8.08v1.84H525.2v-17h2.26Z" style="fill:#00538d"/><path d="M540.51,24.17h-2.25v-17h2.25Z" style="fill:#00538d"/><path d="M557.2,21.93a5.09,5.09,0,0,1-2.42,1.85,9.71,9.71,0,0,1-3.61.62,7,7,0,0,1-3.7-1A6.54,6.54,0,0,1,545,20.64a9.48,9.48,0,0,1-.91-4.17V15a9,9,0,0,1,1.79-6,6.28,6.28,0,0,1,5-2.12,6.47,6.47,0,0,1,4.3,1.37,5.91,5.91,0,0,1,2,3.86H555a3.71,3.71,0,0,0-4-3.39,4,4,0,0,0-3.43,1.59,7.78,7.78,0,0,0-1.17,4.59v1.4a7.23,7.23,0,0,0,1.31,4.56,4.23,4.23,0,0,0,3.54,1.69,7.78,7.78,0,0,0,2.22-.28,3.35,3.35,0,0,0,1.56-.94V17.52H551V15.68h6.18Z" style="fill:#00538d"/><path d="M570.58,16.29h-7.39v6h8.58v1.84H560.94v-17h10.71V9h-8.46v5.49h7.39Zm-.82-10.67v.12H568l-1.76-2-1.74,2h-1.79V5.6l2.88-3.18h1.31Z" style="fill:#00538d"/><path d="M587.66,24.17H585.4L576.82,11V24.17h-2.25v-17h2.25l8.61,13.19V7.13h2.23Z" style="fill:#00538d"/><path d="M604.19,18.76a6.27,6.27,0,0,1-2,4.17,6.54,6.54,0,0,1-4.46,1.47,6,6,0,0,1-4.84-2.17,8.66,8.66,0,0,1-1.82-5.79V14.8a9.62,9.62,0,0,1,.85-4.17,6.22,6.22,0,0,1,2.4-2.77,6.65,6.65,0,0,1,3.6-1,6.16,6.16,0,0,1,4.36,1.52,6.36,6.36,0,0,1,1.91,4.19h-2.26a5,5,0,0,0-1.27-3,3.84,3.84,0,0,0-2.74-.91,4,4,0,0,0-3.37,1.59,7.3,7.3,0,0,0-1.22,4.54v1.65a7.51,7.51,0,0,0,1.15,4.41,3.75,3.75,0,0,0,3.25,1.64,4.31,4.31,0,0,0,2.87-.85,4.68,4.68,0,0,0,1.33-2.95Z" style="fill:#00538d"/><path d="M609.66,24.17h-2.24v-17h2.24Z" style="fill:#00538d"/><path d="M623.39,19.71h-7.14l-1.6,4.46h-2.32l6.51-17h2l6.52,17H625Zm-6.46-1.84h5.79l-2.9-8Z" style="fill:#00538d"/><path d="M350.94,45.05h-7.39v6h8.58v1.84H341.31v-17H352v1.83h-8.47v5.49h7.39Z" style="fill:#00538d"/><path d="M360,45.33a10.49,10.49,0,0,1-4.21-2,3.9,3.9,0,0,1-1.31-3A4.11,4.11,0,0,1,356,37a6.36,6.36,0,0,1,4.18-1.32,7,7,0,0,1,3.13.68,5.13,5.13,0,0,1,2.13,1.87,4.83,4.83,0,0,1,.75,2.61H364a3.09,3.09,0,0,0-1-2.43,4,4,0,0,0-2.77-.89,4.07,4.07,0,0,0-2.59.73,2.45,2.45,0,0,0-.93,2,2.19,2.19,0,0,0,.88,1.76,8.69,8.69,0,0,0,3,1.32,14.07,14.07,0,0,1,3.32,1.32,5.08,5.08,0,0,1,1.78,1.68,4.25,4.25,0,0,1,.58,2.26,4,4,0,0,1-1.62,3.31,6.86,6.86,0,0,1-4.31,1.25,8,8,0,0,1-3.28-.67,5.58,5.58,0,0,1-2.35-1.85,4.48,4.48,0,0,1-.82-2.65h2.26a2.94,2.94,0,0,0,1.14,2.44,4.83,4.83,0,0,0,3,.89,4.43,4.43,0,0,0,2.72-.72,2.38,2.38,0,0,0,.95-2,2.31,2.31,0,0,0-.88-1.94A10.29,10.29,0,0,0,360,45.33Z" style="fill:#00538d"/><path d="M380.92,37.72h-5.48V52.93h-2.23V37.72h-5.47V35.89h13.18Z" style="fill:#00538d"/><path d="M389.7,46h-4v6.9h-2.26v-17h5.64a6.65,6.65,0,0,1,4.43,1.31A4.71,4.71,0,0,1,395.06,41a4.64,4.64,0,0,1-.86,2.78,5.19,5.19,0,0,1-2.4,1.76l4,7.24v.14H393.4Zm-4-1.83h3.45a3.89,3.89,0,0,0,2.66-.87,2.93,2.93,0,0,0,1-2.32,3.08,3.08,0,0,0-.94-2.43,4,4,0,0,0-2.72-.86H385.7Z" style="fill:#00538d"/><path d="M407.61,48.47h-7.13l-1.61,4.46h-2.31l6.5-17h2l6.52,17h-2.31Zm-6.46-1.84H407l-2.9-8Z" style="fill:#00538d"/><path d="M424.1,37.72h-5.47V52.93h-2.24V37.72h-5.46V35.89H424.1Z" style="fill:#00538d"/><path d="M436.26,45.05h-7.38v6h8.58v1.84H426.63v-17h10.71v1.83h-8.46v5.49h7.38ZM433,31.18h2.62l-3.13,3.44H430.7Z" style="fill:#00538d"/><path d="M452.83,50.69a5.15,5.15,0,0,1-2.41,1.86,9.79,9.79,0,0,1-3.61.61,7,7,0,0,1-3.7-1,6.44,6.44,0,0,1-2.5-2.78,9.62,9.62,0,0,1-.91-4.17V43.74a8.94,8.94,0,0,1,1.8-6,6.27,6.27,0,0,1,5.05-2.12A6.44,6.44,0,0,1,450.84,37a5.89,5.89,0,0,1,2,3.86h-2.24a3.72,3.72,0,0,0-4-3.39,4,4,0,0,0-3.42,1.59A7.73,7.73,0,0,0,442,43.67v1.4a7.29,7.29,0,0,0,1.31,4.56,4.26,4.26,0,0,0,3.55,1.69A7.71,7.71,0,0,0,449,51a3.38,3.38,0,0,0,1.57-.94V46.28h-4V44.44h6.18Z" style="fill:#00538d"/><path d="M459,52.93h-2.25v-17H459Z" style="fill:#00538d"/><path d="M475.63,47.52a6.26,6.26,0,0,1-2,4.17,6.55,6.55,0,0,1-4.47,1.47A6,6,0,0,1,464.33,51a8.71,8.71,0,0,1-1.82-5.79V43.56a9.76,9.76,0,0,1,.85-4.17,6.3,6.3,0,0,1,2.41-2.77,6.6,6.6,0,0,1,3.6-1,6.15,6.15,0,0,1,4.35,1.52,6.31,6.31,0,0,1,1.91,4.19h-2.26a4.85,4.85,0,0,0-1.27-3,3.84,3.84,0,0,0-2.73-.92A4,4,0,0,0,466,39.08a7.39,7.39,0,0,0-1.22,4.54v1.65a7.51,7.51,0,0,0,1.16,4.41,3.72,3.72,0,0,0,3.24,1.64,4.28,4.28,0,0,0,2.87-.85,4.68,4.68,0,0,0,1.33-2.95Z" style="fill:#00538d"/><path d="M488.11,48.47H481l-1.61,4.46h-2.31l6.5-17h2l6.52,17h-2.31Zm-6.46-1.84h5.79l-2.9-8Z" style="fill:#00538d"/><path d="M502.51,46.26v6.67h-2.24v-17h6.28a6.31,6.31,0,0,1,4.38,1.42,4.86,4.86,0,0,1,1.59,3.78A4.81,4.81,0,0,1,511,44.92a6.63,6.63,0,0,1-4.44,1.34Zm0-1.84h4a4,4,0,0,0,2.76-.85,3.12,3.12,0,0,0,1-2.46,3.22,3.22,0,0,0-1-2.44,3.81,3.81,0,0,0-2.63-1h-4.17Z" style="fill:#00538d"/><path d="M523.18,48.47H516l-1.6,4.46h-2.32l6.51-17h2l6.52,17h-2.3Zm-6.46-1.84h5.79l-2.9-8Z" style="fill:#00538d"/><path d="M535.65,46h-4v6.9h-2.26v-17H535a6.64,6.64,0,0,1,4.43,1.31A4.68,4.68,0,0,1,541,41a4.57,4.57,0,0,1-.86,2.78,5.16,5.16,0,0,1-2.39,1.76l4,7.24v.14h-2.41Zm-4-1.83h3.45a3.9,3.9,0,0,0,2.67-.87,2.93,2.93,0,0,0,1-2.32,3.08,3.08,0,0,0-1-2.43,4,4,0,0,0-2.72-.86h-3.44Z" style="fill:#00538d"/><path d="M553.57,48.47h-7.14l-1.6,4.46h-2.32l6.51-17h2l6.51,17h-2.3Zm-6.46-1.84h5.79l-2.9-8Z" style="fill:#00538d"/><path d="M575.14,48.47H568l-1.6,4.46h-2.32l6.51-17h2l6.52,17h-2.3Zm-6.46-1.84h5.79l-2.9-8Z" style="fill:#00538d"/><path d="M353.89,79.45a5.22,5.22,0,0,1-2.42,1.86,9.75,9.75,0,0,1-3.61.61,6.94,6.94,0,0,1-3.7-1,6.51,6.51,0,0,1-2.5-2.78,9.48,9.48,0,0,1-.9-4.17V72.5a9,9,0,0,1,1.79-6,6.27,6.27,0,0,1,5.05-2.12,6.48,6.48,0,0,1,4.3,1.37,5.93,5.93,0,0,1,2,3.86h-2.25a3.71,3.71,0,0,0-4-3.39,4,4,0,0,0-3.42,1.59A7.73,7.73,0,0,0,343,72.43v1.4a7.23,7.23,0,0,0,1.31,4.56,4.23,4.23,0,0,0,3.54,1.69,7.66,7.66,0,0,0,2.21-.28,3.33,3.33,0,0,0,1.57-.94V75h-3.94V73.2h6.18Z" style="fill:#00538d"/><path d="M367.26,73.81h-7.38v6h8.58v1.84H357.63v-17h10.71v1.83h-8.46V72h7.38Z" style="fill:#00538d"/><path d="M376.28,74.09a10.49,10.49,0,0,1-4.21-2,3.89,3.89,0,0,1-1.32-3,4.14,4.14,0,0,1,1.61-3.33,6.38,6.38,0,0,1,4.18-1.32,7,7,0,0,1,3.13.68A5.15,5.15,0,0,1,381.8,67a4.7,4.7,0,0,1,.76,2.6H380.3a3.12,3.12,0,0,0-1-2.43,4,4,0,0,0-2.78-.89A4.15,4.15,0,0,0,374,67a2.45,2.45,0,0,0-.93,2,2.2,2.2,0,0,0,.89,1.76,8.62,8.62,0,0,0,3,1.32,14,14,0,0,1,3.33,1.32A5.08,5.08,0,0,1,382,75.1a4.34,4.34,0,0,1,.57,2.26A4,4,0,0,1,381,80.67a6.85,6.85,0,0,1-4.32,1.25,8,8,0,0,1-3.28-.67A5.54,5.54,0,0,1,371,79.4a4.48,4.48,0,0,1-.83-2.65h2.26a2.94,2.94,0,0,0,1.14,2.44,4.79,4.79,0,0,0,3.05.89,4.44,4.44,0,0,0,2.73-.72,2.56,2.56,0,0,0,.07-3.92A10.52,10.52,0,0,0,376.28,74.09Z" style="fill:#00538d"/><path d="M397.25,66.48h-5.48V81.69h-2.24V66.48h-5.46V64.65h13.18Z" style="fill:#00538d"/><path d="M408.26,77.23h-7.14l-1.6,4.46H397.2l6.51-17h2l6.52,17h-2.3Zm.63-16.77a2.93,2.93,0,0,1-.72,2,2.35,2.35,0,0,1-1.8.78,2.59,2.59,0,0,1-.83-.12,4.33,4.33,0,0,1-.92-.48,4,4,0,0,0-.81-.44,2.1,2.1,0,0,0-.58-.07,1.05,1.05,0,0,0-.82.37,1.31,1.31,0,0,0-.34.94l-1.45-.08a3,3,0,0,1,.7-2.07,2.29,2.29,0,0,1,1.8-.82,2.45,2.45,0,0,1,.74.11,5.47,5.47,0,0,1,.89.46,4.65,4.65,0,0,0,.86.44,2,2,0,0,0,.66.11,1.06,1.06,0,0,0,.84-.4,1.39,1.39,0,0,0,.33-.92ZM401.8,75.39h5.79l-2.9-8Z" style="fill:#00538d"/><path d="M427.46,73.72a10.58,10.58,0,0,1-.84,4.37,6.43,6.43,0,0,1-2.39,2.85,6.6,6.6,0,0,1-3.6,1,6.37,6.37,0,0,1-6-3.81,10.06,10.06,0,0,1-.88-4.24V72.64a10.37,10.37,0,0,1,.85-4.34,6.71,6.71,0,0,1,9.6-2.9,6.34,6.34,0,0,1,2.41,2.87,10.61,10.61,0,0,1,.84,4.37Zm-2.23-1.1A7.64,7.64,0,0,0,424,68a4,4,0,0,0-3.41-1.62A4,4,0,0,0,417.25,68a7.56,7.56,0,0,0-1.26,4.5v1.25a7.58,7.58,0,0,0,1.24,4.61,4.33,4.33,0,0,0,6.77.1,7.72,7.72,0,0,0,1.23-4.55Z" style="fill:#00538d"/><path d="M446.4,73.81H439v6h8.58v1.84H436.77v-17h10.7v1.83H439V72h7.39Z" style="fill:#00538d"/><path d="M455.41,74.09a10.49,10.49,0,0,1-4.21-2,3.89,3.89,0,0,1-1.31-3,4.13,4.13,0,0,1,1.6-3.33,6.41,6.41,0,0,1,4.19-1.32,7,7,0,0,1,3.13.68A5.15,5.15,0,0,1,460.94,67a4.77,4.77,0,0,1,.75,2.6h-2.25a3.09,3.09,0,0,0-1-2.43,4,4,0,0,0-2.77-.89,4.13,4.13,0,0,0-2.59.73,2.45,2.45,0,0,0-.93,2,2.19,2.19,0,0,0,.88,1.76,8.69,8.69,0,0,0,3,1.32,14.07,14.07,0,0,1,3.32,1.32,5.08,5.08,0,0,1,1.78,1.68,4.25,4.25,0,0,1,.58,2.26,4,4,0,0,1-1.62,3.31,6.8,6.8,0,0,1-4.31,1.25,8,8,0,0,1-3.28-.67,5.52,5.52,0,0,1-2.35-1.85,4.48,4.48,0,0,1-.82-2.65h2.26a2.94,2.94,0,0,0,1.14,2.44,4.77,4.77,0,0,0,3.05.89,4.43,4.43,0,0,0,2.72-.72,2.37,2.37,0,0,0,1-2,2.32,2.32,0,0,0-.88-1.94A10.29,10.29,0,0,0,455.41,74.09Z" style="fill:#00538d"/><path d="M476.38,66.48H470.9V81.69h-2.23V66.48H463.2V64.65h13.18Z" style="fill:#00538d"/><path d="M487.39,77.23h-7.14l-1.6,4.46h-2.32l6.51-17h2l6.51,17H489Zm-6.46-1.84h5.8l-2.91-8Z" style="fill:#00538d"/><path d="M493.62,81.69v-17h4.81a7.7,7.7,0,0,1,3.93,1,6.67,6.67,0,0,1,2.64,2.8,9.13,9.13,0,0,1,.94,4.16v1.09a9.16,9.16,0,0,1-.93,4.23,6.55,6.55,0,0,1-2.66,2.78,8.26,8.26,0,0,1-4,1Zm2.24-15.21V79.85h2.37a5.13,5.13,0,0,0,4-1.62,6.63,6.63,0,0,0,1.45-4.6v-1a6.77,6.77,0,0,0-1.37-4.51,4.87,4.87,0,0,0-3.86-1.64Z" style="fill:#00538d"/><path d="M521.33,64.65V76.23a5.46,5.46,0,0,1-1.51,4,6.17,6.17,0,0,1-4.08,1.72l-.6,0a6.38,6.38,0,0,1-4.46-1.51A5.37,5.37,0,0,1,509,76.26V64.65h2.22V76.19a3.55,3.55,0,0,0,3.92,3.89,4,4,0,0,0,2.92-1,3.92,3.92,0,0,0,1-2.87V64.65Z" style="fill:#00538d"/><path d="M534,77.23h-7.14l-1.6,4.46H523l6.51-17h2l6.52,17h-2.31Zm-6.46-1.84h5.79l-2.9-8Z" style="fill:#00538d"/><path d="M542.51,79.85h8.08v1.84H540.25v-17h2.26Z" style="fill:#00538d"/><path d="M559.08,81.69v-17h4.81a7.67,7.67,0,0,1,3.93,1,6.67,6.67,0,0,1,2.64,2.8,9.14,9.14,0,0,1,.95,4.16v1.09a9.16,9.16,0,0,1-.93,4.23,6.55,6.55,0,0,1-2.66,2.78,8.26,8.26,0,0,1-4,1Zm2.25-15.21V79.85h2.36a5.15,5.15,0,0,0,4-1.62,6.67,6.67,0,0,0,1.44-4.6v-1a6.77,6.77,0,0,0-1.36-4.51A4.89,4.89,0,0,0,564,66.48Z" style="fill:#00538d"/><path d="M587.91,73.72a10.42,10.42,0,0,1-.85,4.37,6.41,6.41,0,0,1-2.38,2.85,6.64,6.64,0,0,1-3.61,1,6.34,6.34,0,0,1-6-3.81,10.06,10.06,0,0,1-.89-4.24V72.64a10.37,10.37,0,0,1,.86-4.34,6.29,6.29,0,0,1,6-3.89,6.61,6.61,0,0,1,3.61,1,6.38,6.38,0,0,1,2.4,2.87,10.45,10.45,0,0,1,.85,4.37Zm-2.24-1.1A7.58,7.58,0,0,0,584.45,68a4,4,0,0,0-3.4-1.62A4,4,0,0,0,577.7,68a7.43,7.43,0,0,0-1.26,4.5v1.25a7.65,7.65,0,0,0,1.23,4.61,4.33,4.33,0,0,0,6.77.1,7.58,7.58,0,0,0,1.23-4.55Z" style="fill:#00538d"/><path d="M602.23,74.09a10.49,10.49,0,0,1-4.21-2,3.92,3.92,0,0,1-1.31-3,4.11,4.11,0,0,1,1.61-3.33,6.36,6.36,0,0,1,4.18-1.32,7,7,0,0,1,3.13.68A5.15,5.15,0,0,1,607.76,67a4.78,4.78,0,0,1,.76,2.6h-2.26a3.09,3.09,0,0,0-1-2.43,4,4,0,0,0-2.77-.89,4.13,4.13,0,0,0-2.59.73,2.45,2.45,0,0,0-.93,2,2.19,2.19,0,0,0,.88,1.76,8.69,8.69,0,0,0,3,1.32,14.07,14.07,0,0,1,3.32,1.32A5,5,0,0,1,608,75.1a4.25,4.25,0,0,1,.58,2.26,4,4,0,0,1-1.61,3.31,6.85,6.85,0,0,1-4.32,1.25,8,8,0,0,1-3.28-.67A5.58,5.58,0,0,1,597,79.4a4.48,4.48,0,0,1-.82-2.65h2.26a2.94,2.94,0,0,0,1.14,2.44,4.79,4.79,0,0,0,3,.89,4.43,4.43,0,0,0,2.72-.72,2.34,2.34,0,0,0,.95-2,2.32,2.32,0,0,0-.88-1.94A10.29,10.29,0,0,0,602.23,74.09Z" style="fill:#00538d"/><path d="M623.42,64.65V76.23a5.42,5.42,0,0,1-1.51,4,6.13,6.13,0,0,1-4.08,1.72l-.6,0a6.33,6.33,0,0,1-4.45-1.51,5.41,5.41,0,0,1-1.69-4.15V64.65h2.22V76.19a3.89,3.89,0,0,0,1,2.87,4.68,4.68,0,0,0,5.82,0,3.89,3.89,0,0,0,1-2.87V64.65Z" style="fill:#00538d"/><path d="M632,74.09a10.49,10.49,0,0,1-4.21-2,3.92,3.92,0,0,1-1.31-3,4.11,4.11,0,0,1,1.61-3.33,6.36,6.36,0,0,1,4.18-1.32,7,7,0,0,1,3.13.68A5.15,5.15,0,0,1,637.52,67a4.78,4.78,0,0,1,.76,2.6H636a3.09,3.09,0,0,0-1-2.43,4,4,0,0,0-2.77-.89,4.13,4.13,0,0,0-2.59.73,2.45,2.45,0,0,0-.93,2,2.19,2.19,0,0,0,.88,1.76,8.69,8.69,0,0,0,3,1.32A14.07,14.07,0,0,1,636,73.42a5,5,0,0,1,1.78,1.68,4.25,4.25,0,0,1,.58,2.26,4,4,0,0,1-1.61,3.31,6.85,6.85,0,0,1-4.32,1.25,8,8,0,0,1-3.28-.67,5.58,5.58,0,0,1-2.35-1.85,4.48,4.48,0,0,1-.82-2.65h2.26a2.94,2.94,0,0,0,1.14,2.44,4.79,4.79,0,0,0,3,.89,4.43,4.43,0,0,0,2.72-.72,2.34,2.34,0,0,0,.95-2,2.32,2.32,0,0,0-.88-1.94A10.29,10.29,0,0,0,632,74.09Z" style="fill:#00538d"/></g></g></svg>